<?xml version="1.0" encoding="UTF-8" standalone="no"?>
<!DOCTYPE svg PUBLIC "-//W3C//DTD SVG 1.1//EN"
 "http://www.w3.org/Graphics/SVG/1.1/DTD/svg11.dtd">
<!-- Generated by graphviz version 2.40.1 (20161225.0304)
 -->
<!-- Title: G Pages: 1 -->
<svg width="351pt" height="764pt"
 viewBox="0.00 0.00 350.58 764.00" xmlns="http://www.w3.org/2000/svg" xmlns:xlink="http://www.w3.org/1999/xlink">
<g id="graph0" class="graph" transform="scale(1 1) rotate(0) translate(4 760)">
<title>G</title>
<polygon fill="#ffffff" stroke="transparent" points="-4,4 -4,-760 346.5779,-760 346.5779,4 -4,4"/>
<!-- 14 -->
<g id="node1" class="node">
<title>14</title>
<ellipse fill="none" stroke="#000000" cx="238.5779" cy="-738" rx="29.0529" ry="18"/>
<text text-anchor="middle" x="238.5779" y="-733.8" font-family="Times,serif" font-size="14.00" fill="#000000">AST</text>
</g>
<!-- 13 -->
<g id="node2" class="node">
<title>13</title>
<ellipse fill="none" stroke="#000000" cx="238.5779" cy="-666" rx="61.975" ry="18"/>
<text text-anchor="middle" x="238.5779" y="-661.8" font-family="Times,serif" font-size="14.00" fill="#000000">instrucciones</text>
</g>
<!-- 14&#45;&gt;13 -->
<g id="edge1" class="edge">
<title>14&#45;&gt;13</title>
<path fill="none" stroke="#000000" d="M238.5779,-719.8314C238.5779,-712.131 238.5779,-702.9743 238.5779,-694.4166"/>
<polygon fill="#000000" stroke="#000000" points="242.078,-694.4132 238.5779,-684.4133 235.078,-694.4133 242.078,-694.4132"/>
</g>
<!-- 12 -->
<g id="node3" class="node">
<title>12</title>
<ellipse fill="none" stroke="#000000" cx="238.5779" cy="-594" rx="53.8905" ry="18"/>
<text text-anchor="middle" x="238.5779" y="-589.8" font-family="Times,serif" font-size="14.00" fill="#000000">instruccion</text>
</g>
<!-- 13&#45;&gt;12 -->
<g id="edge14" class="edge">
<title>13&#45;&gt;12</title>
<path fill="none" stroke="#000000" d="M238.5779,-647.8314C238.5779,-640.131 238.5779,-630.9743 238.5779,-622.4166"/>
<polygon fill="#000000" stroke="#000000" points="242.078,-622.4132 238.5779,-612.4133 235.078,-622.4133 242.078,-622.4132"/>
</g>
<!-- 11 -->
<g id="node7" class="node">
<title>11</title>
<ellipse fill="none" stroke="#000000" cx="238.5779" cy="-522" rx="37.1424" ry="18"/>
<text text-anchor="middle" x="238.5779" y="-517.8" font-family="Times,serif" font-size="14.00" fill="#000000">bloque</text>
</g>
<!-- 12&#45;&gt;11 -->
<g id="edge2" class="edge">
<title>12&#45;&gt;11</title>
<path fill="none" stroke="#000000" d="M238.5779,-575.8314C238.5779,-568.131 238.5779,-558.9743 238.5779,-550.4166"/>
<polygon fill="#000000" stroke="#000000" points="242.078,-550.4132 238.5779,-540.4133 235.078,-550.4133 242.078,-550.4132"/>
</g>
<!-- 8 -->
<g id="node4" class="node">
<title>8</title>
<ellipse fill="none" stroke="#000000" cx="105.5779" cy="-450" rx="82.8187" ry="18"/>
<text text-anchor="middle" x="105.5779" y="-445.8" font-family="Times,serif" font-size="14.00" fill="#000000">lista_instrucciones</text>
</g>
<!-- 7 -->
<g id="node15" class="node">
<title>7</title>
<ellipse fill="none" stroke="#000000" cx="105.5779" cy="-378" rx="53.8905" ry="18"/>
<text text-anchor="middle" x="105.5779" y="-373.8" font-family="Times,serif" font-size="14.00" fill="#000000">instruccion</text>
</g>
<!-- 8&#45;&gt;7 -->
<g id="edge13" class="edge">
<title>8&#45;&gt;7</title>
<path fill="none" stroke="#000000" d="M105.5779,-431.8314C105.5779,-424.131 105.5779,-414.9743 105.5779,-406.4166"/>
<polygon fill="#000000" stroke="#000000" points="109.078,-406.4132 105.5779,-396.4133 102.078,-406.4133 109.078,-406.4132"/>
</g>
<!-- 9 -->
<g id="node5" class="node">
<title>9</title>
<ellipse fill="none" stroke="#000000" cx="238.5779" cy="-450" rx="32.4846" ry="18"/>
<text text-anchor="middle" x="238.5779" y="-445.8" font-family="Times,serif" font-size="14.00" fill="#000000">begin</text>
</g>
<!-- 10 -->
<g id="node6" class="node">
<title>10</title>
<ellipse fill="none" stroke="#000000" cx="315.5779" cy="-450" rx="27" ry="18"/>
<text text-anchor="middle" x="315.5779" y="-445.8" font-family="Times,serif" font-size="14.00" fill="#000000">end</text>
</g>
<!-- 11&#45;&gt;8 -->
<g id="edge4" class="edge">
<title>11&#45;&gt;8</title>
<path fill="none" stroke="#000000" d="M213.5616,-508.4574C194.3822,-498.0745 167.5377,-483.5422 145.4128,-471.5648"/>
<polygon fill="#000000" stroke="#000000" points="147.0294,-468.46 136.569,-466.7772 143.6969,-474.6159 147.0294,-468.46"/>
</g>
<!-- 11&#45;&gt;9 -->
<g id="edge3" class="edge">
<title>11&#45;&gt;9</title>
<path fill="none" stroke="#000000" d="M238.5779,-503.8314C238.5779,-496.131 238.5779,-486.9743 238.5779,-478.4166"/>
<polygon fill="#000000" stroke="#000000" points="242.078,-478.4132 238.5779,-468.4133 235.078,-478.4133 242.078,-478.4132"/>
</g>
<!-- 11&#45;&gt;10 -->
<g id="edge5" class="edge">
<title>11&#45;&gt;10</title>
<path fill="none" stroke="#000000" d="M256.0504,-505.6621C266.7217,-495.6837 280.5022,-482.7981 292.1163,-471.9381"/>
<polygon fill="#000000" stroke="#000000" points="294.8322,-474.1904 299.7459,-464.8039 290.0512,-469.0774 294.8322,-474.1904"/>
</g>
<!-- 0 -->
<g id="node8" class="node">
<title>0</title>
<ellipse fill="none" stroke="#000000" cx="48.5779" cy="-18" rx="27" ry="18"/>
<text text-anchor="middle" x="48.5779" y="-13.8" font-family="Times,serif" font-size="14.00" fill="#000000">1</text>
</g>
<!-- 1 -->
<g id="node9" class="node">
<title>1</title>
<ellipse fill="none" stroke="#000000" cx="48.5779" cy="-90" rx="48.6559" ry="18"/>
<text text-anchor="middle" x="48.5779" y="-85.8" font-family="Times,serif" font-size="14.00" fill="#000000">expresion</text>
</g>
<!-- 1&#45;&gt;0 -->
<g id="edge6" class="edge">
<title>1&#45;&gt;0</title>
<path fill="none" stroke="#000000" d="M48.5779,-71.8314C48.5779,-64.131 48.5779,-54.9743 48.5779,-46.4166"/>
<polygon fill="#000000" stroke="#000000" points="52.078,-46.4132 48.5779,-36.4133 45.078,-46.4133 52.078,-46.4132"/>
</g>
<!-- 2 -->
<g id="node10" class="node">
<title>2</title>
<ellipse fill="none" stroke="#000000" cx="163.5779" cy="-18" rx="27" ry="18"/>
<text text-anchor="middle" x="163.5779" y="-13.8" font-family="Times,serif" font-size="14.00" fill="#000000">1</text>
</g>
<!-- 3 -->
<g id="node11" class="node">
<title>3</title>
<ellipse fill="none" stroke="#000000" cx="163.5779" cy="-90" rx="48.6559" ry="18"/>
<text text-anchor="middle" x="163.5779" y="-85.8" font-family="Times,serif" font-size="14.00" fill="#000000">expresion</text>
</g>
<!-- 3&#45;&gt;2 -->
<g id="edge7" class="edge">
<title>3&#45;&gt;2</title>
<path fill="none" stroke="#000000" d="M163.5779,-71.8314C163.5779,-64.131 163.5779,-54.9743 163.5779,-46.4166"/>
<polygon fill="#000000" stroke="#000000" points="167.078,-46.4132 163.5779,-36.4133 160.078,-46.4133 167.078,-46.4132"/>
</g>
<!-- 4 -->
<g id="node12" class="node">
<title>4</title>
<ellipse fill="none" stroke="#000000" cx="105.5779" cy="-162" rx="38.8632" ry="18"/>
<text text-anchor="middle" x="105.5779" y="-157.8" font-family="Times,serif" font-size="14.00" fill="#000000">SUMA</text>
</g>
<!-- 4&#45;&gt;1 -->
<g id="edge9" class="edge">
<title>4&#45;&gt;1</title>
<path fill="none" stroke="#000000" d="M92.0697,-144.937C85.0739,-136.1003 76.3934,-125.1354 68.6317,-115.3311"/>
<polygon fill="#000000" stroke="#000000" points="71.3363,-113.1087 62.3851,-107.4407 65.848,-117.4536 71.3363,-113.1087"/>
</g>
<!-- 4&#45;&gt;3 -->
<g id="edge10" class="edge">
<title>4&#45;&gt;3</title>
<path fill="none" stroke="#000000" d="M119.3231,-144.937C126.4416,-136.1003 135.2744,-125.1354 143.1723,-115.3311"/>
<polygon fill="#000000" stroke="#000000" points="145.9808,-117.4239 149.5284,-107.4407 140.5295,-113.0326 145.9808,-117.4239"/>
</g>
<!-- 5 -->
<g id="node13" class="node">
<title>5</title>
<ellipse fill="none" stroke="#000000" cx="105.5779" cy="-234" rx="48.6559" ry="18"/>
<text text-anchor="middle" x="105.5779" y="-229.8" font-family="Times,serif" font-size="14.00" fill="#000000">expresion</text>
</g>
<!-- 5&#45;&gt;4 -->
<g id="edge8" class="edge">
<title>5&#45;&gt;4</title>
<path fill="none" stroke="#000000" d="M105.5779,-215.8314C105.5779,-208.131 105.5779,-198.9743 105.5779,-190.4166"/>
<polygon fill="#000000" stroke="#000000" points="109.078,-190.4132 105.5779,-180.4133 102.078,-190.4133 109.078,-190.4132"/>
</g>
<!-- 6 -->
<g id="node14" class="node">
<title>6</title>
<ellipse fill="none" stroke="#000000" cx="105.5779" cy="-306" rx="29.0529" ry="18"/>
<text text-anchor="middle" x="105.5779" y="-301.8" font-family="Times,serif" font-size="14.00" fill="#000000">print</text>
</g>
<!-- 6&#45;&gt;5 -->
<g id="edge12" class="edge">
<title>6&#45;&gt;5</title>
<path fill="none" stroke="#000000" d="M105.5779,-287.8314C105.5779,-280.131 105.5779,-270.9743 105.5779,-262.4166"/>
<polygon fill="#000000" stroke="#000000" points="109.078,-262.4132 105.5779,-252.4133 102.078,-262.4133 109.078,-262.4132"/>
</g>
<!-- 7&#45;&gt;6 -->
<g id="edge11" class="edge">
<title>7&#45;&gt;6</title>
<path fill="none" stroke="#000000" d="M105.5779,-359.8314C105.5779,-352.131 105.5779,-342.9743 105.5779,-334.4166"/>
<polygon fill="#000000" stroke="#000000" points="109.078,-334.4132 105.5779,-324.4133 102.078,-334.4133 109.078,-334.4132"/>
</g>
</g>
</svg>
